<svg width="1600" height="1100" viewBox="0 0 1600 1100" fill="none" xmlns="http://www.w3.org/2000/svg">
  <rect width="1600" height="1100" fill="#17120D"/>
  <rect x="90" y="112" width="1420" height="876" rx="40" stroke="rgba(255,255,255,0.12)"/>
  <circle cx="1218" cy="248" r="238" fill="url(#paint0_radial)"/>
  <circle cx="320" cy="776" r="214" fill="url(#paint1_radial)"/>
  <path d="M0 910C226 768 421 689 628 689C856 689 972 840 1200 840C1356 840 1490 778 1600 691V1100H0V910Z" fill="url(#paint2_linear)"/>
  <rect x="918" y="520" width="392" height="210" rx="28" fill="rgba(255,255,255,0.05)" stroke="rgba(255,255,255,0.12)"/>
  <path d="M972 594H1248" stroke="#C79B5D" stroke-width="3"/>
  <path d="M972 650H1172" stroke="rgba(255,255,255,0.42)" stroke-width="3"/>
  <path d="M972 706H1124" stroke="rgba(255,255,255,0.22)" stroke-width="3"/>
  <text x="170" y="194" fill="white" fill-opacity="0.64" font-family="Manrope, sans-serif" font-size="18" letter-spacing="6">AKIN-OLUGBADE FAMILY OFFICE</text>
  <defs>
    <radialGradient id="paint0_radial" cx="0" cy="0" r="1" gradientUnits="userSpaceOnUse" gradientTransform="translate(1218 248) rotate(90) scale(238)">
      <stop stop-color="#C79B5D"/>
      <stop offset="1" stop-color="#C79B5D" stop-opacity="0"/>
    </radialGradient>
    <radialGradient id="paint1_radial" cx="0" cy="0" r="1" gradientUnits="userSpaceOnUse" gradientTransform="translate(320 776) rotate(90) scale(214)">
      <stop stop-color="#83917A"/>
      <stop offset="1" stop-color="#83917A" stop-opacity="0"/>
    </radialGradient>
    <linearGradient id="paint2_linear" x1="800" y1="689" x2="800" y2="1100" gradientUnits="userSpaceOnUse">
      <stop stop-color="#403122"/>
      <stop offset="1" stop-color="#17120D"/>
    </linearGradient>
  </defs>
</svg>
